<mxfile host="app.diagrams.net" modified="2022-05-02T13:26:08.963Z" agent="5.0 (Windows NT 10.0; Win64; x64) AppleWebKit/537.36 (KHTML, like Gecko) Chrome/100.0.4896.127 Safari/537.36" etag="s7qxR9fSXSV9rsURJAXJ" version="17.4.6" type="github">
  <diagram name="Page-1" id="9361dd3d-8414-5efd-6122-117bd74ce7a7">
    <mxGraphModel dx="1422" dy="1162" grid="1" gridSize="10" guides="1" tooltips="1" connect="1" arrows="1" fold="1" page="0" pageScale="1.5" pageWidth="826" pageHeight="1169" background="none" math="0" shadow="0">
      <root>
        <mxCell id="0" />
        <mxCell id="1" parent="0" />
        <mxCell id="69" value="" style="fillColor=#DEE8FF;strokeColor=none" parent="1" vertex="1">
          <mxGeometry x="70" y="-130" width="1570" height="800" as="geometry" />
        </mxCell>
        <mxCell id="71" value="AOP Flow Worker Job Procesing" style="rounded=1;fontStyle=1;fillColor=#FFD966;strokeColor=none" parent="1" vertex="1">
          <mxGeometry x="80" y="-110" width="210" height="30" as="geometry" />
        </mxCell>
        <mxCell id="YKI4oU7lkPmLeSKTnHA6-117" value="" style="group" parent="1" vertex="1" connectable="0">
          <mxGeometry x="710" y="-70" width="900" height="580" as="geometry" />
        </mxCell>
        <mxCell id="YKI4oU7lkPmLeSKTnHA6-108" value="AOP Package APIs" style="shape=umlLifeline;perimeter=lifelinePerimeter;whiteSpace=wrap;html=1;container=1;collapsible=0;recursiveResize=0;outlineConnect=0;fillColor=#fff2cc;strokeColor=#d6b656;fontStyle=1;gradientColor=#ffd966;" parent="YKI4oU7lkPmLeSKTnHA6-117" vertex="1">
          <mxGeometry width="136.36363636363635" height="580" as="geometry" />
        </mxCell>
        <mxCell id="YKI4oU7lkPmLeSKTnHA6-94" value="AOP Flow Queue" style="shape=umlLifeline;perimeter=lifelinePerimeter;whiteSpace=wrap;html=1;container=1;collapsible=0;recursiveResize=0;outlineConnect=0;fillColor=#f8cecc;strokeColor=#b85450;fontStyle=1" parent="YKI4oU7lkPmLeSKTnHA6-117" vertex="1">
          <mxGeometry x="504.54545454545456" width="136.36363636363635" height="580" as="geometry" />
        </mxCell>
        <mxCell id="YKI4oU7lkPmLeSKTnHA6-95" value="" style="html=1;points=[];perimeter=orthogonalPerimeter;" parent="YKI4oU7lkPmLeSKTnHA6-94" vertex="1">
          <mxGeometry x="61.36363636363635" y="141.7777777777778" width="13.636363636363633" height="103.11111111111111" as="geometry" />
        </mxCell>
        <mxCell id="YKI4oU7lkPmLeSKTnHA6-96" value="Publish Job on queue" style="html=1;verticalAlign=bottom;endArrow=block;entryX=0;entryY=0;rounded=0;labelBackgroundColor=none;" parent="YKI4oU7lkPmLeSKTnHA6-117" source="YKI4oU7lkPmLeSKTnHA6-89" target="YKI4oU7lkPmLeSKTnHA6-95" edge="1">
          <mxGeometry relative="1" as="geometry">
            <mxPoint x="477.27272727272725" y="335.11111111111114" as="sourcePoint" />
          </mxGeometry>
        </mxCell>
        <mxCell id="YKI4oU7lkPmLeSKTnHA6-97" value="&lt;b&gt;return&lt;/b&gt;" style="html=1;verticalAlign=bottom;endArrow=open;dashed=1;endSize=8;exitX=0;exitY=0.95;rounded=0;labelBackgroundColor=none;" parent="YKI4oU7lkPmLeSKTnHA6-117" source="YKI4oU7lkPmLeSKTnHA6-95" target="YKI4oU7lkPmLeSKTnHA6-89" edge="1">
          <mxGeometry relative="1" as="geometry">
            <mxPoint x="477.27272727272725" y="433.0666666666667" as="targetPoint" />
          </mxGeometry>
        </mxCell>
        <mxCell id="YKI4oU7lkPmLeSKTnHA6-99" value="AOP Flow Consumer(s)" style="shape=umlLifeline;perimeter=lifelinePerimeter;whiteSpace=wrap;html=1;container=1;collapsible=0;recursiveResize=0;outlineConnect=0;fillColor=#e1d5e7;strokeColor=#9673a6;fontStyle=1" parent="YKI4oU7lkPmLeSKTnHA6-117" vertex="1">
          <mxGeometry x="763.6363636363636" width="136.36363636363635" height="580" as="geometry" />
        </mxCell>
        <mxCell id="YKI4oU7lkPmLeSKTnHA6-104" value="" style="html=1;points=[];perimeter=orthogonalPerimeter;" parent="YKI4oU7lkPmLeSKTnHA6-99" vertex="1">
          <mxGeometry x="61.36363636363635" y="141.7777777777778" width="13.636363636363633" height="180.44444444444446" as="geometry" />
        </mxCell>
        <mxCell id="YKI4oU7lkPmLeSKTnHA6-105" value="Consume the job message" style="html=1;verticalAlign=bottom;endArrow=block;entryX=0;entryY=0;rounded=0;labelBackgroundColor=none;" parent="YKI4oU7lkPmLeSKTnHA6-117" source="YKI4oU7lkPmLeSKTnHA6-95" target="YKI4oU7lkPmLeSKTnHA6-104" edge="1">
          <mxGeometry x="-0.5714" relative="1" as="geometry">
            <mxPoint x="729.5454545454546" y="141.7777777777778" as="sourcePoint" />
            <mxPoint as="offset" />
          </mxGeometry>
        </mxCell>
        <mxCell id="YKI4oU7lkPmLeSKTnHA6-111" value="" style="html=1;points=[];perimeter=orthogonalPerimeter;" parent="YKI4oU7lkPmLeSKTnHA6-117" vertex="1">
          <mxGeometry x="61.36363636363637" y="103.11111111111111" width="13.636363636363637" height="283.5555555555556" as="geometry" />
        </mxCell>
        <mxCell id="YKI4oU7lkPmLeSKTnHA6-106" value="&lt;b&gt;callBack to SF Org&lt;/b&gt;" style="html=1;verticalAlign=bottom;endArrow=open;dashed=1;endSize=8;exitX=0;exitY=0.95;rounded=0;entryX=1;entryY=0.743;entryDx=0;entryDy=0;entryPerimeter=0;labelBackgroundColor=none;" parent="YKI4oU7lkPmLeSKTnHA6-117" source="YKI4oU7lkPmLeSKTnHA6-104" target="YKI4oU7lkPmLeSKTnHA6-111" edge="1">
          <mxGeometry relative="1" as="geometry">
            <mxPoint x="729.5454545454546" y="239.73333333333335" as="targetPoint" />
          </mxGeometry>
        </mxCell>
        <mxCell id="YKI4oU7lkPmLeSKTnHA6-112" value="&lt;font style=&quot;font-size: 8px&quot;&gt;&lt;b&gt;Create AOP Job on FlowWorker&lt;/b&gt;&lt;/font&gt;" style="html=1;verticalAlign=bottom;endArrow=block;rounded=0;labelBackgroundColor=none;" parent="YKI4oU7lkPmLeSKTnHA6-117" target="YKI4oU7lkPmLeSKTnHA6-89" edge="1">
          <mxGeometry width="80" relative="1" as="geometry">
            <mxPoint x="75" y="116.00000000000001" as="sourcePoint" />
            <mxPoint x="184.0909090909091" y="116.00000000000001" as="targetPoint" />
          </mxGeometry>
        </mxCell>
        <mxCell id="YKI4oU7lkPmLeSKTnHA6-113" value="Flow Worker JOB API" style="shape=umlLifeline;perimeter=lifelinePerimeter;whiteSpace=wrap;html=1;container=1;collapsible=0;recursiveResize=0;outlineConnect=0;labelBackgroundColor=none;fontSize=12;fillColor=#e1d5e7;strokeColor=#9673a6;fontStyle=1" parent="YKI4oU7lkPmLeSKTnHA6-117" vertex="1">
          <mxGeometry x="185.79545454545456" width="136.36363636363635" height="580" as="geometry" />
        </mxCell>
        <mxCell id="YKI4oU7lkPmLeSKTnHA6-89" value="" style="html=1;points=[];perimeter=orthogonalPerimeter;" parent="YKI4oU7lkPmLeSKTnHA6-117" vertex="1">
          <mxGeometry x="245.45454545454547" y="103.11111111111111" width="17.045454545454543" height="270.6666666666667" as="geometry" />
        </mxCell>
        <mxCell id="YKI4oU7lkPmLeSKTnHA6-114" value="&lt;b&gt;Returns Job ID&lt;/b&gt;" style="html=1;verticalAlign=bottom;endArrow=open;dashed=1;endSize=8;rounded=0;labelBackgroundColor=none;fontSize=8;" parent="YKI4oU7lkPmLeSKTnHA6-117" target="YKI4oU7lkPmLeSKTnHA6-111" edge="1">
          <mxGeometry x="-0.2" y="-10" relative="1" as="geometry">
            <mxPoint x="245.45454545454547" y="257.77777777777777" as="sourcePoint" />
            <mxPoint x="136.36363636363635" y="257.77777777777777" as="targetPoint" />
            <mxPoint as="offset" />
          </mxGeometry>
        </mxCell>
        <mxCell id="YKI4oU7lkPmLeSKTnHA6-118" value="Salesforce Org" style="shape=umlLifeline;perimeter=lifelinePerimeter;whiteSpace=wrap;html=1;container=1;collapsible=0;recursiveResize=0;outlineConnect=0;labelBackgroundColor=none;fontSize=12;fontStyle=1;fillColor=#dae8fc;strokeColor=#6c8ebf;" parent="1" vertex="1">
          <mxGeometry x="560" y="-70" width="100" height="580" as="geometry" />
        </mxCell>
        <mxCell id="YKI4oU7lkPmLeSKTnHA6-119" value="" style="html=1;points=[];perimeter=orthogonalPerimeter;labelBackgroundColor=none;fontSize=12;" parent="YKI4oU7lkPmLeSKTnHA6-118" vertex="1">
          <mxGeometry x="45" y="100" width="10" height="440" as="geometry" />
        </mxCell>
        <mxCell id="QzyfoN8fPYNIB7dP53YS-71" value="Sales Agent" style="shape=umlActor;verticalLabelPosition=bottom;verticalAlign=top;html=1;labelBackgroundColor=none;fontSize=12;" vertex="1" parent="1">
          <mxGeometry x="290" y="30" width="30" height="60" as="geometry" />
        </mxCell>
        <mxCell id="QzyfoN8fPYNIB7dP53YS-74" value="dispatch" style="html=1;verticalAlign=bottom;endArrow=block;rounded=0;labelBackgroundColor=none;fontSize=12;" edge="1" parent="1" target="YKI4oU7lkPmLeSKTnHA6-119">
          <mxGeometry width="80" relative="1" as="geometry">
            <mxPoint x="380" y="59.5" as="sourcePoint" />
            <mxPoint x="460" y="59.5" as="targetPoint" />
          </mxGeometry>
        </mxCell>
      </root>
    </mxGraphModel>
  </diagram>
</mxfile>
